<svg height="12" viewBox="0 0 12 12" width="12" xmlns="http://www.w3.org/2000/svg"><path d="m6-.00000217c.37435675-.00077648.71779633.2076026.89.54000217l5 9.6c.1607721.3103299.1478593.6820792-.0340582.9805056s-.5064396.4802221-.8559418.4794966h-10c-.34950216.0007255-.67402431-.1810702-.85594178-.4794966s-.19483032-.6701757-.03405822-.9805056l5-9.6c.17220367-.33239957.51564325-.54077865.89-.54000217zm-.25 8.00000217c-.41421356 0-.75.33578644-.75.75v.5c0 .41.34.75.75.75h.5c.41 0 .75-.34.75-.75v-.5c0-.41421356-.33578644-.75-.75-.75zm1.25-4.3c0-.55228475-.44771525-1-1-1s-1 .44771525-1 1v2.6c0 .55228475.44771525 1 1 1s1-.44771525 1-1z"/></svg>