<svg height="12" viewBox="0 0 12 12" width="12" xmlns="http://www.w3.org/2000/svg"><path d="m.28514765.28980378c.18250803-.18540034.43178434-.28980378.69194289-.28980378.26015854 0 .50943485.10440344.69194288.28980378l4.3302232 4.3302232 4.33022318-4.3302232c.2472074-.24720738.60752-.34375285.9452116-.25326867.3376915.09048418.6014587.35425132.6919429.69194288.0904841.33769156-.0060613.69800417-.2532687.94521156l-4.33022322 4.3302232 4.33022322 4.33022315c.3821495.3821495.3821495 1.0017363 0 1.3838858s-1.0017363.3821495-1.3838858 0l-4.33022318-4.33022319-4.3302232 4.33022319c-.39000901.3286719-.96669935.3041072-1.32734615-.0565396-.36064681-.3606468-.3852115-.9373371-.05653962-1.3273462l4.3302232-4.33022315-4.3302232-4.3302232c-.38019687-.38295625-.38019687-1.00092953 0-1.38388577z"/></svg>