<svg height="15" viewBox="0 0 16 15" width="16" xmlns="http://www.w3.org/2000/svg"><path d="m9.78192033 14.6957983c-.38114287-.3888435-.38114287-1.0111565 0-1.4l3.78999997-3.79999998-3.79999997-3.8c-.33716525-.3991459-.31021536-.99057795.06185316-1.35740608.37206851-.36682812.96382331-.38538661 1.35814681-.04259392l4.5 4.5c.3811429.38884351.3811429 1.01115649 0 1.39999998l-4.5 4.5c-.1877666.1893127-.4433624.2957983-.71.2957983-.2666375 0-.52223337-.1064856-.70999997-.2957983zm-3.6-14.39999998c.38114288.38884352.38114288 1.01115649 0 1.4l-3.78 3.8 3.8 3.8c.33716526.39914591.31021537.99057798-.06185315 1.35740608-.37206853.3668281-.96382334.3853866-1.35814685.0425939l-4.5-4.49999998c-.37589377-.39097231-.37589377-1.00902769 0-1.4l4.5-4.5c.1877666-.18931265.44336247-.29579832.71-.29579832.26663754 0 .5222334.10648567.71.29579832z"/></svg>