<svg height="16" viewBox="0 0 16 16" width="16" xmlns="http://www.w3.org/2000/svg"><path d="m8 0c.55228475 0 1 .44771525 1 1v2.1c.59179297.15045588 1.1510212.40803977 1.65.76l1.5-1.5c.2679492-.26794921.6584937-.37259529 1.0245191-.27451908s.6519238.3839746.75.75000001c.0980762.36602542-.0065699.75656988-.2745191 1.02451907l-1.5 1.5c.3473321.49669178.6014647 1.05239507.75 1.64h2.1c.3572656 0 .6873926.19059891.8660254.5.1786328.30940107.1786328.69059893 0 1-.1786328.30940109-.5087598.5-.8660254.5h-2.1c-.1504559.59179297-.4080398 1.1510212-.76 1.65l1.5 1.5c.4142136.4142136.4142135 1.0857864 0 1.5-.4142136.4142135-1.0857864.4142136-1.5 0l-1.5-1.5c-.4966918.3473321-1.05239507.6014647-1.64.75v2.1c0 .5522847-.44771525 1-1 1s-1-.4477153-1-1v-2.1c-.59179297-.1504559-1.15102116-.4080398-1.65-.76l-1.5 1.5c-.41421356.4142136-1.08578644.4142136-1.5 0s-.41421356-1.0857864 0-1.5l1.5-1.5c-.34733208-.4966918-.60146468-1.05239507-.75-1.64h-2.1c-.55228475 0-1-.44771525-1-1s.44771525-1 1-1h2.1c.15045588-.59179297.40803977-1.15102116.76-1.65l-1.5-1.5c-.26794919-.26794919-.37259526-.65849365-.27451905-1.02451905.09807621-.36602541.38397459-.65192379.75-.75.3660254-.09807621.75656986.00656986 1.02451905.27451905l1.5 1.5c.49669178-.34733208 1.05239507-.60146468 1.64-.75v-2.1c0-.55228475.44771525-1 1-1zm0 5c-1.65685425 0-3 1.34314575-3 3s1.34314575 3 3 3 3-1.34314575 3-3-1.34314575-3-3-3z"/></svg>