<svg height="12" viewBox="0 0 16 12" width="16" xmlns="http://www.w3.org/2000/svg"><path d="m232.06066 59.3535534 1.436864 1.4363713c1.126072-.5253972 2.314274-.7899247 3.502476-.7899247 3 0 6 1.6862915 8 5-.989014 1.6386515-2.222564 2.8793393-3.579727 3.714944l1.246989 1.2452111c.195262.1952622.195262.5118446 0 .7071068-.195262.1952621-.511845.1952621-.707107 0l-.645952-.6472498-.028524-.0381602-.032631-.0359104-9.192388-9.1923881c-.023694-.0236941-.049174-.044513-.076008-.0624568l-.631099-.6304364c-.195262-.1952622-.195262-.5118447 0-.7071068.195263-.1952622.511845-.1952622.707107 0zm-.30873 2.5039351.632986.6345208c-.515925.4287636-.98272.9303074-1.470159 1.4780136l-.914757 1.0299771 1.156571 1.2993006c.052821.0581879.105534.1157893.158231.1727397l.316707.3337281c1.271885 1.3018995 2.639555 2.1942316 5.368491 2.1942316.654644 0 1.230951-.0513511 1.74639-.1473888l.750662.7523857c-.817734.2629051-1.657393.3950031-2.497052.3950031-3 0-6-1.6862915-8-5 .783791-1.2986269 1.721163-2.3473119 2.75193-3.1425115zm5.24807-.8574885c-1.163061 0-2.078858.1620858-2.845358.4488839l1.107163 1.105691c.490396-.3491995 1.090311-.5545749 1.738195-.5545749 1.656854 0 3 1.3431458 3 3 0 .6478613-.205361 1.247758-.554539 1.7381448l1.353396 1.3531403c.814346-.489075 1.464561-1.1464914 2.141599-1.8994028l.783054-.8834706c.090501-.1017861.18254-.2046374.27649-.3084117l-1.156571-1.2993006c-.052821-.0581978-.105534-.1157893-.158231-.1727397l-.316707-.3337281c-1.271885-1.3018995-2.639555-2.1942316-5.368491-2.1942316zm-2.895378 3.211778.899378.8993288.001486.0381555c.073634.9980649.879722 1.7924429 1.882798 1.8476702l.899938.8984457c-.251175.0682166-.515447.1046218-.788222.1046218-1.656854 0-3-1.3431458-3-3 0-.2727748.036405-.5370467.104622-.788222zm2.895378-1.211778c-.370956 0-.718324.1009929-1.016108.2769833l2.738893 2.7395165c.176134-.2978714.277215-.6453812.277215-1.0164998 0-1.1045695-.895431-2-2-2z" transform="translate(-229 -59)"/></svg>
