<svg height="12" viewBox="0 0 12 12" width="12" xmlns="http://www.w3.org/2000/svg"><path d="m8 5c1.65685425 0 3 1.34314575 3 3 0 .64788357-.2053754 1.24779914-.5545749 1.73819532l1.4094486 1.40957168c.1952622.1952621.1952622.5118446 0 .7071067-.1952621.1952622-.5118446.1952622-.7071067 0l-1.40957168-1.4094486c-.49039618.3491995-1.09031175.5545749-1.73819532.5545749-1.65685425 0-3-1.34314575-3-3s1.34314575-3 3-3zm-4.9375 4c.24162458 0 .4375.22385763.4375.5s-.19587542.5-.4375.5h-2.625c-.24162458 0-.4375-.22385763-.4375-.5s.19587542-.5.4375-.5zm4.9375-3c-1.1045695 0-2 .8954305-2 2s.8954305 2 2 2 2-.8954305 2-2-.8954305-2-2-2zm-4.66666667 0c.36818984 0 .66666667.22385763.66666667.5s-.29847683.5-.66666667.5h-2.66666666c-.36818984 0-.66666667-.22385763-.66666667-.5s.29847683-.5.66666667-.5zm8.16666667-3c.2761424 0 .5.22385763.5.5s-.2238576.5-.5.5h-11c-.27614237 0-.5-.22385763-.5-.5s.22385763-.5.5-.5zm0-3c.2761424 0 .5.22385763.5.5 0 .27614238-.2238576.5-.5.5h-11c-.27614237 0-.5-.22385762-.5-.5 0-.27614237.22385763-.5.5-.5z" fill-rule="evenodd"/></svg>
