<svg height="14" viewBox="0 0 16 14" width="16" xmlns="http://www.w3.org/2000/svg"><path d="m13 0c1.6568542 0 3 1.34314575 3 3v8c0 1.6568542-1.3431458 3-3 3h-10c-1.65685425 0-3-1.3431458-3-3v-8c0-1.65685425 1.34314575-3 3-3zm0 2h-10c-.55228475 0-1 .44771525-1 1v8c0 .5522847.44771525 1 1 1h10c.5522847 0 1-.4477153 1-1v-8c0-.55228475-.4477153-1-1-1zm-6.5 5c.27614237 0 .5.22385763.5.5s-.22385763.5-.5.5h-3c-.27614237 0-.5-.22385763-.5-.5s.22385763-.5.5-.5zm3-2c.27614237 0 .5.22385763.5.5s-.22385763.5-.5.5h-6c-.27614237 0-.5-.22385763-.5-.5s.22385763-.5.5-.5zm0-2c.27614237 0 .5.22385763.5.5s-.22385763.5-.5.5h-6c-.27614237 0-.5-.22385763-.5-.5s.22385763-.5.5-.5z"/></svg>