<svg height="14" viewBox="0 0 15 14" width="15" xmlns="http://www.w3.org/2000/svg"><path d="m14 0c-.5522847 0-1 .44771525-1 1v2.418c-1.7343955-2.903689-5.29790445-4.15051543-8.46427089-2.96154065-3.16636645 1.18897478-5.02848522 4.47313159-4.42302177 7.80073606.60546345 3.32760449 3.50505509 5.74535979 6.88729266 5.74283219 1.85757574.0051992 3.6400293-.7329886 4.95-2.0500276.3789722-.3923789.3735524-1.0160848-.0121814-1.4018186s-1.0094397-.3911536-1.4018186-.0121814c-1.54474285 1.5735317-3.93558492 1.9545288-5.89290049.9390741-1.95731557-1.0154548-3.02260638-3.18949248-2.62570782-5.35852546.39689855-2.16903297 2.16301358-3.82496845 4.35308556-4.08151716 2.19007197-.25654872 4.29107985.94638547 5.17852275 2.96496852h-2.549c-.55228475 0-1 .44771525-1 1s.44771525 1 1 1h5c.5522847 0 1-.44771525 1-1v-5c0-.55228475-.4477153-1-1-1z"/></svg>