<svg viewBox="0 0 16 16" xmlns="http://www.w3.org/2000/svg"><path d="m6.00461153 10.0076859c2.21083692 0 4.00307437-1.79223745 4.00307437-4.00307437s-1.79223745-4.00307435-4.00307437-4.00307435-4.00307435 1.79223743-4.00307435 4.00307435 1.79223743 4.00307437 4.00307435 4.00307437zm0-10.0076859c3.31625538 0 6.00461157 2.68835616 6.00461157 6.00461153 0 1.29679773-.4110886 2.49758059-1.1100583 3.4791413l4.8199074 4.82023257c.3792635.3926805.3738395 1.0168658-.0121908 1.402896-.3860302.3860303-1.0102155.3914543-1.402896.0121908l-4.82023257-4.8199074c-.98156071.6989697-2.18234357 1.1100583-3.4791413 1.1100583-3.31625537 0-6.00461153-2.68835619-6.00461153-6.00461157 0-3.31625537 2.68835616-6.00461153 6.00461153-6.00461153z" fill-rule="evenodd"/></svg>