<svg height="16" viewBox="0 0 13 16" width="13" xmlns="http://www.w3.org/2000/svg"><path d="m321 900.789564c.18506 0 .36649.051353.524097.148342l10.091958 6.210436c.470358.289451.617012.905398.327561 1.375755-.082043.133321-.19424.245518-.327561.327561l-10.091958 6.210436c-.470357.289451-1.086304.142797-1.375755-.327561-.09699-.157608-.148342-.339038-.148342-.524097v-12.420872c0-.552284.447715-1 1-1zm1.5 3.126269c-.276142 0-.5.223857-.5.5v7.168334c0 .095876.027565.18973.079411.270379.149326.232285.458683.299537.690968.15021l5.575371-3.584167c.060251-.038733.111478-.089959.150211-.15021.149326-.232285.082074-.541642-.150211-.690968l-5.575371-3.584167c-.080649-.051846-.174503-.079411-.270379-.079411z" fill-rule="evenodd" transform="translate(-320 -900)"/></svg>
