<svg height="12" viewBox="0 0 12 12" width="12" xmlns="http://www.w3.org/2000/svg"><path d="m6 0c3.3137085 0 6 2.6862915 6 6s-2.6862915 6-6 6-6-2.6862915-6-6 2.6862915-6 6-6zm3.87143006 2.83558206-7.035848 7.035848c.86194298.70537024 1.96375867 1.12856994 3.16441794 1.12856994 2.76142375 0 5-2.23857625 5-5 0-1.20065927-.4231997-2.30247496-1.12856994-3.16441794zm-3.87143006-1.83558206c-2.76142375 0-5 2.23857625-5 5 0 1.20065927.42319969 2.30247496 1.12856994 3.16441794l7.035848-7.035848c-.86194298-.70537025-1.96375867-1.12856994-3.16441794-1.12856994z" fill-rule="evenodd"/></svg>
