<svg height="16" viewBox="0 0 16 16" width="16" xmlns="http://www.w3.org/2000/svg"><path d="m15 0c4.418278 0 8 3.581722 8 8s-3.581722 8-8 8-8-3.581722-8-8 3.581722-8 8-8zm4.8906459 4.52332235-8.3673235 8.36732355c.9808452.6985231 2.1807841 1.1093541 3.4766776 1.1093541 3.3137085 0 6-2.6862915 6-6 0-1.29589353-.410831-2.49583235-1.1093541-3.47667765zm-4.8906459-2.52332235c-3.3137085 0-6 2.6862915-6 6 0 1.29589353.41083098 2.4958324 1.1093541 3.4766776l8.3673235-8.36732348c-.9808452-.69852314-2.1807841-1.10935412-3.4766776-1.10935412z" fill-rule="evenodd" transform="translate(-7)"/></svg>
