<svg height="12" viewBox="0 0 12 12" width="12" xmlns="http://www.w3.org/2000/svg"><path d="m6 0c3.3137085 0 6 2.6862915 6 6s-2.6862915 6-6 6-6-2.6862915-6-6 2.6862915-6 6-6zm2.75 2.93414157c-.47829262-.27614237-1.08988303-.11226722-1.3660254.36602541l-2.21704233 3.83883302-1.2901891-1.08260157c-.42307467-.35500179-1.05383026-.29981783-1.40883206.12325684-.35500179.42307466-.29981783 1.05383025.12325684 1.40883205l1.53208888 1.28557522c1.222806 1.19512626 2.23635065.20036032 2.49276857-.24376855l2.5-4.33012701c.27614238-.47829263.11226722-1.08988303-.3660254-1.36602541z"/></svg>