<svg height="16" viewBox="0 0 13 16" width="13" xmlns="http://www.w3.org/2000/svg"><path d="m4.5 12c.27614237 0 .5-.2238576.5-.5v-6c0-.27614237-.22385763-.5-.5-.5s-.5.22385763-.5.5v6c0 .2761424.22385763.5.5.5zm2 0c.27614237 0 .5-.2238576.5-.5v-6c0-.27614237-.22385763-.5-.5-.5s-.5.22385763-.5.5v6c0 .2761424.22385763.5.5.5zm2 0c.27614237 0 .5-.2238576.5-.5v-6c0-.27614237-.22385763-.5-.5-.5s-.5.22385763-.5.5v6c0 .2761424.22385763.5.5.5zm3.5-10h-3.05c-.23659623-1.16516199-1.26105919-2.00250628-2.45-2.00250628s-2.21340377.83734429-2.45 2.00250628h-3.05c-.55228475 0-1 .44771525-1 1s.44771525 1 1 1v9c0 1.6568542 1.34314575 3 3 3h5c1.6568542 0 3-1.3431458 3-3v-9c.5522847 0 1-.44771525 1-1s-.4477153-1-1-1zm-5.5-1c.63141201.00302177 1.19235929.4036984 1.4 1h-2.8c.20764071-.5963016.76858799-.99697823 1.4-1zm3.5 12c0 .5522847-.44771525 1-1 1h-5c-.55228475 0-1-.4477153-1-1v-9h7z"/></svg>