<svg height="11" viewBox="0 0 11 11" width="11" xmlns="http://www.w3.org/2000/svg"><path d="m.24774091 2.24774091c.33042098-.33032121.86603342-.33032121 1.1964544 0l4.23074399 4.23074399c.33032121.33042098.33032121.86603342 0 1.1964544l-4.23074399 4.230744c-.33201093.3206669-.85975892.3160809-1.18614711-.0103073s-.33097417-.8541362-.01030729-1.1861471l3.63251679-3.6325168-3.63251679-3.63251679c-.33032121-.33042098-.33032121-.86603342 0-1.1964544zm5.07689279 0c.33042098-.33032121.86603342-.33032121 1.1964544 0l4.230744 4.23074399c.3303212.33042098.3303212.86603342 0 1.1964544l-4.230744 4.230744c-.33201092.3206669-.85975891.3160809-1.1861471-.0103073s-.33097418-.8541362-.0103073-1.1861471l3.63251679-3.6325168-3.63251679-3.63251679c-.33032121-.33042098-.33032121-.86603342 0-1.1964544z" transform="translate(0 -2)"/></svg>
