<svg height="12" viewBox="0 0 12 12" width="12" xmlns="http://www.w3.org/2000/svg"><path d="m.88.88c.16353225-.16612384.38689073-.25967222.62-.25967222s.45646775.09354838.62.25967222l3.88 3.88 3.88-3.88c.2215047-.22150467.5443547-.30801208.8469358-.22693575.302581.08107633.5389236.317419.62.62.0810763.302581-.0054311.62543108-.2269358.84693575l-3.88 3.88 3.88 3.88c.3424165.3424165.3424165.8975835 0 1.24s-.8975835.3424165-1.24 0l-3.88-3.88-3.88 3.88c-.34945888.2944991-.86618941.2724885-1.18933894-.0506611-.32314953-.3231495-.34516018-.83988-.05066106-1.1893389l3.88-3.88-3.88-3.88c-.34066693-.34313941-.34066693-.89686059 0-1.24z" fill="#b9b9ba"/></svg>