<svg height="16" viewBox="0 0 16 16" width="16" xmlns="http://www.w3.org/2000/svg"><path d="m16 3c.5522847 0 1 .44771525 1 1v2.1c.591793.15045588 1.1510212.40803977 1.65.76l1.5-1.5c.2679492-.26794921.6584937-.37259529 1.0245191-.27451908s.6519238.3839746.75.75000001c.0980762.36602542-.0065699.75656988-.2745191 1.02451907l-1.5 1.5c.3473321.49669178.6014647 1.05239507.75 1.64h2.1c.3572656 0 .6873926.1905989.8660254.5s.1786328.6905989 0 1-.5087598.5-.8660254.5h-2.1c-.1504559.591793-.4080398 1.1510212-.76 1.65l1.5 1.5c.4142136.4142136.4142135 1.0857864 0 1.5-.4142136.4142135-1.0857864.4142136-1.5 0l-1.5-1.5c-.4966918.3473321-1.0523951.6014647-1.64.75v2.1c0 .5522847-.4477153 1-1 1s-1-.4477153-1-1v-2.1c-.591793-.1504559-1.1510212-.4080398-1.65-.76l-1.5 1.5c-.4142136.4142136-1.0857864.4142136-1.5 0-.41421356-.4142136-.41421356-1.0857864 0-1.5l1.5-1.5c-.3473321-.4966918-.6014647-1.0523951-.75-1.64h-2.1c-.55228475 0-1-.4477153-1-1s.44771525-1 1-1h2.1c.1504559-.59179297.4080398-1.15102116.76-1.65l-1.5-1.5c-.2679492-.26794919-.37259526-.65849365-.2745191-1.02451905.0980763-.36602541.3839746-.65192379.75-.75.3660255-.09807621.7565699.00656986 1.0245191.27451905l1.5 1.5c.4966918-.34733208 1.0523951-.60146468 1.64-.75v-2.1c0-.55228475.4477153-1 1-1zm0 5c-1.6568542 0-3 1.34314575-3 3 0 1.6568542 1.3431458 3 3 3s3-1.3431458 3-3c0-1.65685425-1.3431458-3-3-3z" transform="translate(-8 -3)"/></svg>
