<svg height="18" viewBox="0 0 14 18" width="14" xmlns="http://www.w3.org/2000/svg"><path d="m4.84615385 13.925776c.29738409 0 .53846153-.2410774.53846153-.5384615v-6.4615385c0-.2973841-.24107744-.53846154-.53846153-.53846154-.2973841 0-.53846154.24107744-.53846154.53846154v6.4615385c0 .2973841.24107744.5384615.53846154.5384615zm2.15384615 0c.2973841 0 .53846154-.2410774.53846154-.5384615v-6.4615385c0-.2973841-.24107744-.53846154-.53846154-.53846154s-.53846154.24107744-.53846154.53846154v6.4615385c0 .2973841.24107744.5384615.53846154.5384615zm2.15384615 0c.2973841 0 .53846154-.2410774.53846154-.5384615v-6.4615385c0-.2973841-.24107744-.53846154-.53846154-.53846154-.29738409 0-.53846153.24107744-.53846153.53846154v6.4615385c0 .2973841.24107744.5384615.53846153.5384615zm3.76923075-10.76923077h-3.28461536c-.25479594-1.25478984-1.35806375-2.15654523-2.63846154-2.15654523s-2.3836656.90175539-2.63846154 2.15654523h-3.28461538c-.59476819 0-1.07692308.48215488-1.07692308 1.07692307 0 .5947682.48215489 1.07692308 1.07692308 1.07692308v9.69230772c0 1.7843045 1.44646465 3.2307692 3.23076923 3.2307692h5.38461538c1.78430461 0 3.23076921-1.4464647 3.23076921-3.2307692v-9.69230772c.5947682 0 1.0769231-.48215488 1.0769231-1.07692308 0-.59476819-.4821549-1.07692307-1.0769231-1.07692307zm-5.9230769-1.07692308c.67998217.00325422 1.28407924.43475212 1.50769231 1.07692308h-3.01538462c.22361307-.64217096.82771014-1.07366886 1.50769231-1.07692308zm3.7692308 12.92307695c0 .5947682-.4821549 1.076923-1.07692311 1.076923h-5.38461538c-.59476819 0-1.07692308-.4821548-1.07692308-1.076923v-9.69230772h7.53846157z" transform="translate(0 -1)"/></svg>
