<svg height="14" viewBox="0 0 15 14" width="15" xmlns="http://www.w3.org/2000/svg"><path d="m742.00096 39c-.552284 0-1 .4477153-1 1v2.418c-1.734395-2.903689-5.297904-4.1505154-8.464271-2.9615407-3.166366 1.1889748-5.028485 4.4731316-4.423021 7.8007361.605463 3.3276045 3.505055 5.7453598 6.887292 5.7428322 1.857576.0051992 3.64003-.7329886 4.95-2.0500276.378973-.3923789.373553-1.0160848-.012181-1.4018186s-1.00944-.3911536-1.401819-.0121814c-1.544742 1.5735317-3.935585 1.9545288-5.8929.9390741-1.957316-1.0154548-3.022606-3.1894925-2.625708-5.3585255.396899-2.1690329 2.163014-3.8249684 4.353086-4.0815171s4.291079.9463854 5.178522 2.9649685h-2.549c-.552284 0-1 .4477153-1 1s.447716 1 1 1h5c.552285 0 1-.4477153 1-1v-5c0-.5522847-.447715-1-1-1z" transform="translate(-728 -39)"/></svg>
